<?xml version="1.0" encoding="utf-8"?>
<svg version="1.1" xmlns:xlink="http://www.w3.org/1999/xlink" width="51px" height="41px" xmlns="http://www.w3.org/2000/svg">
  <g transform="matrix(1 0 0 1 -277 -318 )">
    <path d="M 10.78271484375 27.495625  C 11.56298828125 26.6927083333333  11.953125 25.7275  11.953125 24.6  C 11.953125 23.4725  11.56298828125 22.5072916666667  10.78271484375 21.704375  C 10.00244140625 20.9014583333333  9.064453125 20.5  7.96875 20.5  C 6.873046875 20.5  5.93505859375 20.9014583333333  5.15478515625 21.704375  C 4.37451171875 22.5072916666667  3.984375 23.4725  3.984375 24.6  C 3.984375 25.7275  4.37451171875 26.6927083333333  5.15478515625 27.495625  C 5.93505859375 28.2985416666667  6.873046875 28.7  7.96875 28.7  C 9.064453125 28.7  10.00244140625 28.2985416666667  10.78271484375 27.495625  Z M 15.06591796875 7.251875  L 12.849609375 17  L 38.150390625 17  L 35.93408203125 7.251875  C 35.90087890625 7.11520833333333  35.78466796875 6.96572916666666  35.58544921875 6.8034375  C 35.38623046875 6.64114583333333  35.2119140625 6.56  35.0625 7  L 15.9375 7  C 15.7880859375 6.56  15.61376953125 6.64114583333333  15.41455078125 6.8034375  C 15.21533203125 6.96572916666666  15.09912109375 7.11520833333333  15.06591796875 7.251875  Z M 45.84521484375 27.495625  C 46.62548828125 26.6927083333333  47.015625 25.7275  47.015625 24.6  C 47.015625 23.4725  46.62548828125 22.5072916666667  45.84521484375 21.704375  C 45.06494140625 20.9014583333333  44.126953125 20.5  43.03125 20.5  C 41.935546875 20.5  40.99755859375 20.9014583333333  40.21728515625 21.704375  C 39.43701171875 22.5072916666667  39.046875 23.4725  39.046875 24.6  C 39.046875 25.7275  39.43701171875 26.6927083333333  40.21728515625 27.495625  C 40.99755859375 28.2985416666667  41.935546875 28.7  43.03125 28.7  C 44.126953125 28.7  45.06494140625 28.2985416666667  45.84521484375 27.495625  Z M 49.368896484375 18.0784375  C 50.456298828125 19.1973958333333  51 20.55125  51 22.14  L 51 31.98  C 51 32.2191666666667  50.92529296875 32.415625  50.77587890625 32.569375  C 50.62646484375 32.723125  50.435546875 32.8  50.203125 32.8  L 47.8125 32.8  L 47.8125 36.08  C 47.8125 37.4466666666667  47.34765625 38.6083333333333  46.41796875 39.565  C 45.48828125 40.5216666666667  44.359375 41  43.03125 41  C 41.703125 41  40.57421875 40.5216666666667  39.64453125 39.565  C 38.71484375 38.6083333333333  38.25 37.4466666666667  38.25 36.08  L 38.25 32  L 12.75 32  L 12.75 36.08  C 12.75 37.4466666666667  12.28515625 38.6083333333333  11.35546875 39.565  C 10.42578125 40.5216666666667  9.296875 41  7.96875 41  C 6.640625 41  5.51171875 40.5216666666667  4.58203125 39.565  C 3.65234375 38.6083333333333  3.1875 37.4466666666667  3.1875 36.08  L 3.1875 32.8  L 0.796875 32.8  C 0.564453125 32.8  0.37353515625 32.723125  0.22412109375 32.569375  C 0.07470703125 32.415625  0 32.2191666666667  0 31.98  L 0 22.14  C 0 20.55125  0.543701171875 19.1973958333333  1.631103515625 18.0784375  C 2.718505859375 16.9594791666667  4.0341796875 16.4  5.578125 16.4  L 6.275390625 16.4  L 8.89013671875 5.663125  C 9.27197265625 4.05729166666666  10.13525390625 2.71197916666666  11.47998046875 1.6271875  C 12.82470703125 0.542395833333332  14.310546875 0  15.9375 0  L 35.0625 0  C 36.689453125 0  38.17529296875 0.542395833333332  39.52001953125 1.6271875  C 40.86474609375 2.71197916666666  41.72802734375 4.05729166666666  42.10986328125 5.663125  L 44.724609375 16.4  L 45.421875 16.4  C 46.9658203125 16.4  48.281494140625 16.9594791666667  49.368896484375 18.0784375  Z " fill-rule="nonzero" fill="#000000" stroke="none" transform="matrix(1 0 0 1 277 318 )" />
  </g>
</svg>