<?xml version="1.0" encoding="utf-8"?>
<svg version="1.1" xmlns:xlink="http://www.w3.org/1999/xlink" width="51px" height="29px" xmlns="http://www.w3.org/2000/svg">
  <g transform="matrix(1 0 0 1 -580 -324 )">
    <path d="M 48.3006507592191 11.9192037470726  C 49.7904555314534 13.5567265157429  50.660737527115 15.4696851418163  50.9114967462039 17.6580796252927  C 51.0885032537961 19.2125943273484  50.9262472885033 20.7105126203487  50.4247288503254 22.1518345042935  C 49.9232104121475 23.5931563882384  49.1930585683297 24.8269581056466  48.234273318872 25.8532396565183  C 47.2754880694143 26.8795212073901  46.1065075921909 27.6794171220401  44.7273318872017 28.2529274004684  C 43.3481561822126 28.8264376788967  41.8989154013015 29.0603695029925  40.3796095444686 28.9547228727557  C 38.0047722342733 28.7887067395264  35.9433839479393 27.8454332552693  34.1954446854664 26.1249024199844  C 32.4475054229935 24.4043715846995  31.4555314533623 22.3367161072079  31.2195227765727 19.9219359875098  C 31.0425162689805 18.2466822794692  31.2453362255965 16.6582097319802  31.8279826464208 15.1565183450429  C 32.4106290672451 13.6548269581056  33.2845986984816 12.368201925579  34.4498915401302 11.2966432474629  L 32.8789587852495 8.87431693989071  C 31.4629067245119 10.0817069997398  30.3492407809111 11.5456674473068  29.5379609544469 13.2661982825917  C 28.7266811279827 14.9867291178767  28.3210412147505 16.8279989591465  28.3210412147505 18.7900078064012  C 28.3210412147505 19.1975019516003  28.1845986984816 19.5483996877439  27.9117136659436 19.8427010148322  C 27.6388286334056 20.1370023419204  27.3032537960954 20.2841530054645  26.904989154013 20.2841530054645  L 21.2407809110629 20.2841530054645  L 19.7140997830803 20.2841530054645  C 19.3748373101952 22.7593026281551  18.2759219088937 24.8269581056466  16.4173535791757 26.4871194379391  C 14.5587852494577 28.1472807702316  12.3904555314534 28.9773614363778  9.91236442516269 28.9773614363778  C 7.18351409978308 28.9773614363778  4.84924078091106 27.9850377309394  2.90954446854664 26.0003903200625  C 0.969848156182213 24.0157429091855  0 21.6273744470466  0 18.8352849336456  C 0 16.0431954202446  0.969848156182213 13.6548269581056  2.90954446854664 11.6701795472287  C 4.84924078091106 9.68553213635181  7.18351409978308 8.69320843091335  9.91236442516269 8.69320843091335  C 11.0334056399132 8.69320843091335  12.1544468546638 8.89695550351288  13.2754880694143 9.30444964871194  L 13.8065075921909 8.28571428571428  C 11.9921908893709 6.62555295342181  9.75010845986985 5.79547228727557  7.08026030368764 5.79547228727557  L 5.66420824295011 5.79547228727557  C 5.28069414316703 5.79547228727557  4.94880694143167 5.65209471766848  4.66854663774403 5.36533957845433  C 4.3882863340564 5.07858443924017  4.24815618221258 4.73900598490762  4.24815618221258 4.34660421545668  C 4.24815618221258 3.95420244600572  4.3882863340564 3.61462399167317  4.66854663774403 3.32786885245902  C 4.94880694143167 3.04111371324486  5.28069414316703 2.89773614363778  5.66420824295011 2.89773614363778  L 8.49631236442516 2.89773614363778  C 9.64685466377441 2.89773614363778  10.7162689804772 2.99960967993755  11.7045553145336 3.20335675253708  C 12.69284164859 3.40710382513661  13.5520607375271 3.69763205828779  14.2822125813449 4.07494145199063  C 15.0123644251627 4.45225084569347  15.5396963123644 4.75032526671871  15.8642082429501 4.96916471506635  C 16.1887201735358 5.18800416341399  16.5648590021692 5.46344002081707  16.9926247288503 6  L 28.3210412147505 6  L 30.8655097613883 5.79547228727557  L 28.9848156182213 2.89773614363778  L 24.072885032538 2.89773614363778  C 23.6303687635575 2.89773614363778  23.2689804772234 2.72794691647151  22.9887201735358 2.38836846213895  C 22.7084598698482 2.0487900078064  22.6052060737527 1.65261514441842  22.6789587852495 1.19984387197502  C 22.7379609544469 0.852719229768407  22.9075921908894 0.565964090554255  23.187852494577 0.339578454332553  C 23.4681127982646 0.113192818110851  23.7852494577007 0  24.139262472885 0  L 29.7370932754881 0  C 30.2238611713666 0  30.6147505422994 0.211293260473586  30.9097613882863 0.633879781420766  L 32.458568329718 3.01092896174863  L 34.9809110629067 0.430132708821234  C 35.2611713665944 0.143377569607076  35.6004338394794 0  35.9986984815618 0  L 38.2334056399132 0  C 38.6169197396963 0  38.9488069414317 0.143377569607076  39.2290672451193 0.430132708821234  C 39.5093275488069 0.716887848035386  39.6494577006508 1.05646630236794  39.6494577006508 1.44886807181889  L 39.6494577006508 4.34660421545668  C 39.6494577006508 4.73900598490762  39.5093275488069 5.07858443924017  39.2290672451193 5.36533957845433  C 38.9488069414317 5.65209471766848  38.6169197396963 5.79547228727557  38.2334056399132 5.79547228727557  L 34.272885032538 5.79547228727557  L 36.8173535791757 9.68930523028884  C 38.7496746203905 8.73848555815769  40.777874186551 8.46682279469164  42.9019522776573 8.87431693989071  C 45.0112798264642 9.26671870934166  46.8108459869848 10.2816809784023  48.3006507592191 11.9192037470726  Z M 4.9119305856833 23.9516003122561  C 6.29848156182213 25.3702836325787  7.96529284164859 26.07962529274  9.91236442516269 26.07962529274  C 11.6086767895879 26.07962529274  13.1058568329718 25.5325266718709  14.4039045553145 24.4383294301327  C 15.7019522776573 23.3441321883945  16.5206073752712 21.9594067135051  16.8598698481562 20.2841530054645  L 9.91236442516269 20.2841530054645  C 9.39609544468547 20.2841530054645  8.99045553145336 20.0502211813687  8.69544468546638 19.5823575331772  C 8.42993492407809 19.0994015092376  8.42255965292842 18.623991673172  8.67331887201735 18.1561280249805  L 11.9258134490239 11.8852459016393  C 11.2325379609544 11.6890450169139  10.5613882863341 11.5909445745511  9.91236442516269 11.5909445745511  C 7.96529284164859 11.5909445745511  6.29848156182213 12.3002862347125  4.9119305856833 13.7189695550351  C 3.52537960954447 15.1376528753578  2.83210412147505 16.8430913348946  2.83210412147505 18.8352849336456  C 2.83210412147505 20.8274785323966  3.52537960954447 22.5329169919334  4.9119305856833 23.9516003122561  Z M 36.0650759219089 23.9516003122561  C 37.4516268980477 25.3702836325787  39.1184381778742 26.07962529274  41.0655097613883 26.07962529274  C 43.0125813449024 26.07962529274  44.6793926247288 25.3702836325787  46.0659436008677 23.9516003122561  C 47.4524945770065 22.5329169919334  48.1457700650759 20.8274785323966  48.1457700650759 18.8352849336456  C 48.1457700650759 16.8430913348946  47.4524945770065 15.1376528753578  46.0659436008677 13.7189695550351  C 44.6793926247288 12.3002862347125  43.0125813449024 11.5909445745511  41.0655097613883 11.5909445745511  C 40.1804772234273 11.5909445745511  39.2880694143167 11.7720530835285  38.3882863340564 12.1342701014832  L 42.2381778741865 18.0202966432475  C 42.4594360086768 18.3674212854541  42.5331887201735 18.7371844912829  42.4594360086768 19.1295862607338  C 42.38568329718 19.5219880301848  42.1865509761388 19.823835545147  41.8620390455531 20.0351288056206  C 41.6407809110629 20.2011449388499  41.3752711496746 20.2841530054645  41.0655097613883 20.2841530054645  C 40.5492407809111 20.2841530054645  40.1583514099783 20.0653135571168  39.89284164859 19.6276346604215  L 36.0429501084599 13.7416081186573  C 34.6711496746204 15.1753838147281  33.9852494577007 16.8732760863908  33.9852494577007 18.8352849336456  C 33.9852494577007 20.8274785323966  34.6785249457701 22.5329169919334  36.0650759219089 23.9516003122561  Z " fill-rule="nonzero" fill="#000000" stroke="none" transform="matrix(1 0 0 1 580 324 )" />
  </g>
</svg>