<?xml version="1.0" encoding="utf-8"?>
<svg version="1.1" xmlns:xlink="http://www.w3.org/1999/xlink" width="45px" height="41px" xmlns="http://www.w3.org/2000/svg">
  <g transform="matrix(1 0 0 1 -1794 -997 )">
    <path d="M 43.4855769230769 14.7000630119723  C 44.4951923076923 14.8550724637681  45 15.2512077294686  45 15.8884688090737  C 45 16.2673808023524  44.765625 16.6807393404747  44.296875 17.1285444234405  L 34.4801682692308 26.2741020793951  L 36.8058894230769 39.1915563957152  C 36.8239182692308 39.3121193026675  36.8329326923077 39.4843520268851  36.8329326923077 39.708254568368  C 36.8329326923077 40.069943289225  36.73828125 40.3756563747112  36.5489783653846 40.6253938248267  C 36.3596754807692 40.8751312749422  36.0847355769231 41  35.7241586538462 41  C 35.3816105769231 41  35.0210336538462 40.8966603654694  34.6424278846154 40.6899810964083  L 22.5 34.5929426591052  L 10.3575721153846 40.6899810964083  C 9.9609375 40.8966603654694  9.60036057692308 41  9.27584134615384 41  C 8.89723557692308 41  8.61328125 40.8751312749422  8.42397836538461 40.6253938248267  C 8.23467548076923 40.3756563747112  8.14002403846154 40.069943289225  8.14002403846154 39.708254568368  C 8.14002403846154 39.6049149338374  8.15805288461539 39.4326822096198  8.19411057692308 39.1915563957152  L 10.5198317307692 26.2741020793951  L 0.676081730769231 17.1285444234405  C 0.225360576923077 16.6635160680529  0 16.2501575299307  0 15.8884688090737  C 0 15.2512077294686  0.504807692307692 14.8550724637681  1.51442307692308 14.7000630119723  L 15.0901442307692 12.8141146817895  L 21.1748798076923 1.05923125393825  C 21.5174278846154 0.353077084646081  21.9591346153846 0  22.5 0  C 23.0408653846154 0  23.4825721153846 0.353077084646081  23.8251201923077 1.05923125393825  L 29.9098557692308 12.8141146817895  L 43.4855769230769 14.7000630119723  Z " fill-rule="nonzero" fill="#f59a23" stroke="none" transform="matrix(1 0 0 1 1794 997 )" />
  </g>
</svg>