<?xml version="1.0" encoding="utf-8"?>
<svg version="1.1" xmlns:xlink="http://www.w3.org/1999/xlink" width="45px" height="45px" xmlns="http://www.w3.org/2000/svg">
  <g transform="matrix(1 0 0 1 -65 -34 )">
    <path d="M 27.59765625 27.59765625  C 29.9684495192308 25.2268629807692  31.1538461538462 22.3737980769231  31.1538461538462 19.0384615384615  C 31.1538461538462 15.703125  29.9684495192308 12.8500600961538  27.59765625 10.4792668269231  C 25.2268629807692 8.1084735576923  22.3737980769231 6.92307692307692  19.0384615384615 6.92307692307692  C 15.703125 6.92307692307692  12.8500600961538 8.1084735576923  10.4792668269231 10.4792668269231  C 8.10847355769231 12.8500600961538  6.92307692307692 15.703125  6.92307692307692 19.0384615384615  C 6.92307692307692 22.3737980769231  8.10847355769231 25.2268629807692  10.4792668269231 27.59765625  C 12.8500600961538 29.9684495192308  15.703125 31.1538461538462  19.0384615384615 31.1538461538462  C 22.3737980769231 31.1538461538462  25.2268629807692 29.9684495192308  27.59765625 27.59765625  Z M 43.9993990384615 39.1045673076923  C 44.6664663461538 39.7716346153846  45 40.5829326923077  45 41.5384615384615  C 45 42.4759615384615  44.6574519230769 43.2872596153846  43.9723557692308 43.9723557692308  C 43.2872596153846 44.6574519230769  42.4759615384615 45  41.5384615384615 45  C 40.5649038461538 45  39.7536057692308 44.6574519230769  39.1045673076923 43.9723557692308  L 29.8287259615385 34.7235576923077  C 26.6015625 36.9591346153846  23.0048076923077 38.0769230769231  19.0384615384615 38.0769230769231  C 16.4603365384615 38.0769230769231  13.9948918269231 37.5766225961538  11.6421274038462 36.5760216346154  C 9.28936298076923 35.5754206730769  7.26111778846154 34.2232572115385  5.55739182692308 32.51953125  C 3.85366586538462 30.8158052884615  2.50150240384615 28.7875600961538  1.50090144230769 26.4347956730769  C 0.500300480769231 24.08203125  0 21.6165865384615  0 19.0384615384615  C 0 16.4603365384615  0.500300480769231 13.9948918269231  1.50090144230769 11.6421274038462  C 2.50150240384615 9.28936298076923  3.85366586538462 7.26111778846154  5.55739182692308 5.55739182692308  C 7.26111778846154 3.85366586538462  9.28936298076923 2.50150240384615  11.6421274038462 1.50090144230769  C 13.9948918269231 0.50030048076923  16.4603365384615 0  19.0384615384615 0  C 21.6165865384615 0  24.08203125 0.50030048076923  26.4347956730769 1.50090144230769  C 28.7875600961538 2.50150240384615  30.8158052884615 3.85366586538462  32.51953125 5.55739182692308  C 34.2232572115385 7.26111778846154  35.5754206730769 9.28936298076923  36.5760216346154 11.6421274038462  C 37.5766225961538 13.9948918269231  38.0769230769231 16.4603365384615  38.0769230769231 19.0384615384615  C 38.0769230769231 23.0048076923077  36.9591346153846 26.6015625  34.7235576923077 29.8287259615385  L 43.9993990384615 39.1045673076923  Z " fill-rule="nonzero" fill="#000000" stroke="none" transform="matrix(1 0 0 1 65 34 )" />
  </g>
</svg>