<?xml version="1.0" encoding="utf-8"?>
<svg version="1.1" xmlns:xlink="http://www.w3.org/1999/xlink" width="56px" height="56px" xmlns="http://www.w3.org/2000/svg">
  <g transform="matrix(1 0 0 1 -72 -1746 )">
    <path d="M 34.34375 34.34375  C 37.2940705128205 31.3934294871795  38.7692307692308 27.8429487179487  38.7692307692308 23.6923076923077  C 38.7692307692308 19.5416666666667  37.2940705128205 15.9911858974359  34.34375 13.0408653846154  C 31.3934294871795 10.0905448717949  27.8429487179487 8.61538461538462  23.6923076923077 8.61538461538462  C 19.5416666666667 8.61538461538462  15.9911858974359 10.0905448717949  13.0408653846154 13.0408653846154  C 10.0905448717949 15.9911858974359  8.61538461538462 19.5416666666667  8.61538461538462 23.6923076923077  C 8.61538461538462 27.8429487179487  10.0905448717949 31.3934294871795  13.0408653846154 34.34375  C 15.9911858974359 37.2940705128205  19.5416666666667 38.7692307692308  23.6923076923077 38.7692307692308  C 27.8429487179487 38.7692307692308  31.3934294871795 37.2940705128205  34.34375 34.34375  Z M 54.7548076923077 48.6634615384615  C 55.5849358974359 49.4935897435898  56 50.5032051282051  56 51.6923076923077  C 56 52.8589743589744  55.573717948718 53.8685897435898  54.7211538461538 54.7211538461538  C 53.8685897435898 55.5737179487179  52.8589743589744 56  51.6923076923077 56  C 50.4807692307692 56  49.4711538461538 55.5737179487179  48.6634615384615 54.7211538461538  L 37.1201923076923 43.2115384615385  C 33.1041666666667 45.9935897435898  28.6282051282051 47.3846153846154  23.6923076923077 47.3846153846154  C 20.4839743589744 47.3846153846154  17.4158653846154 46.7620192307692  14.4879807692308 45.5168269230769  C 11.5600961538462 44.2716346153846  9.03605769230769 42.5889423076923  6.91586538461539 40.46875  C 4.79567307692308 38.3485576923077  3.11298076923077 35.8245192307692  1.86778846153846 32.8966346153846  C 0.622596153846154 29.96875  0 26.900641025641  0 23.6923076923077  C 0 20.4839743589744  0.622596153846154 17.4158653846154  1.86778846153846 14.4879807692308  C 3.11298076923077 11.5600961538462  4.79567307692308 9.0360576923077  6.91586538461539 6.91586538461538  C 9.03605769230769 4.79567307692308  11.5600961538462 3.11298076923077  14.4879807692308 1.86778846153846  C 17.4158653846154 0.622596153846152  20.4839743589744 0  23.6923076923077 0  C 26.900641025641 0  29.96875 0.622596153846152  32.8966346153846 1.86778846153846  C 35.8245192307692 3.11298076923077  38.3485576923077 4.79567307692308  40.46875 6.91586538461538  C 42.5889423076923 9.0360576923077  44.2716346153846 11.5600961538462  45.5168269230769 14.4879807692308  C 46.7620192307692 17.4158653846154  47.3846153846154 20.4839743589744  47.3846153846154 23.6923076923077  C 47.3846153846154 28.6282051282051  45.9935897435898 33.1041666666667  43.2115384615385 37.1201923076923  L 54.7548076923077 48.6634615384615  Z " fill-rule="nonzero" fill="#ffffff" stroke="none" transform="matrix(1 0 0 1 72 1746 )" />
  </g>
</svg>