<?xml version="1.0" encoding="utf-8"?>
<svg version="1.1" xmlns:xlink="http://www.w3.org/1999/xlink" width="56px" height="42px" xmlns="http://www.w3.org/2000/svg">
  <g transform="matrix(1 0 0 1 -258 -1761 )">
    <path d="M 41.0625 7.60113555713272  C 43.0208333333333 9.94606103619588  44 12.499645138396  44 15.2618878637331  C 44 18.0241305890703  43.0208333333333 20.5777146912704  41.0625 22.9226401703336  C 39.1041666666667 25.2675656493967  36.4322916666667 27.1206529453513  33.046875 28.4819020581973  C 29.6614583333333 29.8431511710433  25.9791666666667 30.5237757274663  22 30.5237757274663  C 20.2083333333333 30.5237757274663  18.375 30.3647977288857  16.5 30.0468417317246  C 13.9166666666667 31.7955997161107  11.0208333333333 33.0674237047551  7.8125 33.8623136976579  C 7.0625 34.041163946061  6.16666666666667 34.2001419446416  5.125 34.3392476933996  L 5.03125 34.3392476933996  C 4.80208333333333 34.3392476933996  4.58854166666667 34.2597586941093  4.390625 34.1007806955287  C 4.19270833333333 33.9418026969482  4.07291666666667 33.7331440738112  4.03125 33.4748048261178  C 4.01041666666667 33.4151880766501  4 33.3506032647268  4 33.2810503903478  C 4 33.2114975159688  4.00520833333333 33.1469127040454  4.015625 33.0872959545777  C 4.02604166666667 33.02767920511  4.046875 32.9680624556423  4.078125 32.9084457061746  L 4.15625 32.7594038325053  C 4.15625 32.7594038325053  4.19270833333333 32.7047551454933  4.265625 32.5954577714691  C 4.33854166666667 32.486160397445  4.38020833333333 32.4364797728886  4.390625 32.4464158977999  C 4.40104166666667 32.4563520227111  4.44791666666667 32.4066713981547  4.53125 32.2973740241306  C 4.61458333333333 32.1880766501065  4.65625 32.1433640880057  4.65625 32.1632363378282  C 4.76041666666667 32.0440028388928  5 31.7955997161107  5.375 31.4180269694819  C 5.75 31.0404542228531  6.02083333333333 30.7473385379702  6.1875 30.5386799148332  C 6.35416666666667 30.3300212916962  6.58854166666667 30.041873669269  6.890625 29.6742370475515  C 7.19270833333333 29.3066004258339  7.453125 28.9240596167495  7.671875 28.5266146202981  C 7.890625 28.1291696238467  8.10416666666667 27.6919801277502  8.3125 27.2150461320085  C 5.72916666666667 25.7842441447835  3.69791666666667 24.0255500354862  2.21875 21.9389638041164  C 0.739583333333333 19.8523775727466  0 17.6266855926189  0 15.2618878637331  C 0 12.499645138396  0.979166666666667 9.94606103619588  2.9375 7.60113555713272  C 4.89583333333333 5.25621007806955  7.56770833333333 3.40312278211497  10.953125 2.04187366926899  C 14.3385416666667 0.680624556422994  18.0208333333333 0  22 0  C 25.9791666666667 0  29.6614583333333 0.680624556422994  33.046875 2.04187366926899  C 36.4322916666667 3.40312278211497  39.1041666666667 5.25621007806955  41.0625 7.60113555713272  Z M 53.65625 16.0369056068133  C 55.21875 18.1632363378282  56 20.4485450674237  56 22.8928317955997  C 56 25.277501774308  55.2604166666667 27.5081618168914  53.78125 29.5848119233499  C 52.3020833333333 31.6614620298084  50.2708333333333 33.4151880766501  47.6875 34.8459900638751  C 47.8958333333333 35.3229240596167  48.109375 35.7601135557133  48.328125 36.1575585521647  C 48.546875 36.555003548616  48.8072916666667 36.9375443577005  49.109375 37.305180979418  C 49.4114583333333 37.6728176011356  49.6458333333333 37.9609652235628  49.8125 38.1696238466998  C 49.9791666666667 38.3782824698368  50.25 38.6713981547197  50.625 39.0489709013485  C 51 39.4265436479773  51.2395833333333 39.6749467707594  51.34375 39.7941802696948  C 51.3645833333333 39.8140525195174  51.40625 39.8587650816182  51.46875 39.9283179559972  C 51.53125 39.9978708303762  51.578125 40.0475514549326  51.609375 40.0773598296664  C 51.640625 40.1071682044003  51.6822916666667 40.1568488289567  51.734375 40.2264017033357  C 51.7864583333333 40.2959545777147  51.8229166666667 40.3506032647268  51.84375 40.3903477643719  L 51.921875 40.5393896380412  C 51.921875 40.5393896380412  51.9427083333333 40.5990063875089  51.984375 40.7182398864443  C 52.0260416666667 40.8374733853797  52.03125 40.9020581973031  52 40.9119943222143  C 51.96875 40.9219304471256  51.9583333333333 40.986515259049  51.96875 41.1057487579844  C 51.90625 41.3839602555004  51.7708333333333 41.6025550035486  51.5625 41.7615330021292  C 51.3541666666667 41.9205110007097  51.125 41.9900638750887  50.875 41.9701916252661  C 49.8333333333333 41.8310858765082  48.9375 41.6721078779276  48.1875 41.4932576295245  C 44.9791666666667 40.6983676366217  42.0833333333333 39.4265436479773  39.5 37.6777856635912  C 37.625 37.9957416607523  35.7916666666667 38.1547196593329  34 38.1547196593329  C 28.3541666666667 38.1547196593329  23.4375 36.8431511710433  19.25 34.2200141944642  C 20.4583333333333 34.2995031937544  21.375 34.3392476933996  22 34.3392476933996  C 25.3541666666667 34.3392476933996  28.5729166666667 33.8921220723918  31.65625 32.9978708303762  C 34.7395833333333 32.1036195883605  37.4895833333333 30.8218594748048  39.90625 29.152590489709  C 42.5104166666667 27.3243435060326  44.5104166666667 25.2178850248403  45.90625 22.833215046132  C 47.3020833333333 20.4485450674237  48 17.9247693399574  48 15.2618878637331  C 48 13.7317246273953  47.7604166666667 12.2214336408801  47.28125 10.7310149041874  C 49.96875 12.1419446415898  52.09375 13.9105748757984  53.65625 16.0369056068133  Z " fill-rule="nonzero" fill="#000000" stroke="none" transform="matrix(1 0 0 1 258 1761 )" />
  </g>
</svg>