<?xml version="1.0" encoding="utf-8"?>
<svg version="1.1" xmlns:xlink="http://www.w3.org/1999/xlink" width="42px" height="38px" xmlns="http://www.w3.org/2000/svg">
  <g transform="matrix(1 0 0 1 -2681 -471 )">
    <path d="M 40.5865384615385 13.6244486452426  C 41.5288461538462 13.768115942029  42 14.1352657004831  42 14.7258979206049  C 42 15.0770846460828  41.78125 15.4601974375131  41.34375 15.875236294896  L 32.1814903846154 24.351606805293  L 34.3521634615385 36.3238815374921  C 34.3689903846154 36.435622768326  34.3774038461538 36.5952530980886  34.3774038461538 36.8027725267801  C 34.3774038461538 37.1379962192817  34.2890625 37.4213400546104  34.1123798076923 37.6528040327662  C 33.9356971153846 37.8842680109221  33.6790865384615 38  33.3425480769231 38  C 33.0228365384615 38  32.6862980769231 37.9042218021424  32.3329326923077 37.7126654064272  L 21 32.0617517328292  L 9.66706730769231 37.7126654064272  C 9.296875 37.9042218021424  8.96033653846154 38  8.65745192307692 38  C 8.30408653846154 38  8.0390625 37.8842680109221  7.86237980769231 37.6528040327662  C 7.68569711538462 37.4213400546104  7.59735576923077 37.1379962192817  7.59735576923077 36.8027725267801  C 7.59735576923077 36.7069943289225  7.61418269230769 36.5473639991598  7.64783653846154 36.3238815374921  L 9.81850961538461 24.351606805293  L 0.631009615384615 15.875236294896  C 0.210336538461538 15.4442344045369  0 15.0611216131065  0 14.7258979206049  C 0 14.1352657004831  0.471153846153846 13.768115942029  1.41346153846154 13.6244486452426  L 14.0841346153846 11.8764965343415  L 19.7632211538462 0.981726528040326  C 20.0829326923077 0.327242176013441  20.4951923076923 0  21 0  C 21.5048076923077 0  21.9170673076923 0.327242176013441  22.2367788461538 0.981726528040326  L 27.9158653846154 11.8764965343415  L 40.5865384615385 13.6244486452426  Z " fill-rule="nonzero" fill="#ffffff" stroke="none" transform="matrix(1 0 0 1 2681 471 )" />
  </g>
</svg>