<?xml version="1.0" encoding="utf-8"?>
<svg version="1.1" xmlns:xlink="http://www.w3.org/1999/xlink" width="56px" height="56px" xmlns="http://www.w3.org/2000/svg">
  <g transform="matrix(1 0 0 1 -846 -1753 )">
    <path d="M 39.125 49.265625  C 42.5625 47.4427083333333  45.3854166666667 44.96875  47.59375 41.84375  C 47.1354166666667 38.6145833333333  46.2239583333333 35.9322916666667  44.859375 33.796875  C 43.4947916666667 31.6614583333333  41.5729166666667 30.4270833333333  39.09375 30.09375  C 37.6979166666667 31.6354166666667  36.0364583333333 32.8385416666667  34.109375 33.703125  C 32.1822916666667 34.5677083333333  30.1458333333333 35  28 35  C 25.8541666666667 35  23.8177083333333 34.5677083333333  21.890625 33.703125  C 19.9635416666667 32.8385416666667  18.3020833333333 31.6354166666667  16.90625 30.09375  C 14.4270833333333 30.4270833333333  12.5052083333333 31.6614583333333  11.140625 33.796875  C 9.77604166666667 35.9322916666667  8.86458333333333 38.6145833333333  8.40625 41.84375  C 10.6145833333333 44.96875  13.4375 47.4427083333333  16.875 49.265625  C 20.3125 51.0885416666667  24.0208333333333 52  28 52  C 31.9791666666667 52  35.6875 51.0885416666667  39.125 49.265625  Z M 36.484375 28.484375  C 38.828125 26.140625  40 23.3125  40 20  C 40 16.6875  38.828125 13.859375  36.484375 11.515625  C 34.140625 9.171875  31.3125 8  28 8  C 24.6875 8  21.859375 9.171875  19.515625 11.515625  C 17.171875 13.859375  16 16.6875  16 20  C 16 23.3125  17.171875 26.140625  19.515625 28.484375  C 21.859375 30.828125  24.6875 32  28 32  C 31.3125 32  34.140625 30.828125  36.484375 28.484375  Z M 53.78125 17.125  C 55.2604166666667 20.5833333333333  56 24.2083333333333  56 28  C 56 31.7916666666667  55.2604166666667 35.4114583333333  53.78125 38.859375  C 52.3020833333333 42.3072916666667  50.3177083333333 45.2864583333333  47.828125 47.796875  C 45.3385416666667 50.3072916666667  42.3645833333333 52.3020833333333  38.90625 53.78125  C 35.4479166666667 55.2604166666667  31.8125 56  28 56  C 24.2083333333333 56  20.5833333333333 55.2604166666667  17.125 53.78125  C 13.6666666666667 52.3020833333333  10.6875 50.3125  8.1875 47.8125  C 5.6875 45.3125  3.69791666666667 42.3333333333333  2.21875 38.875  C 0.739583333333333 35.4166666666667  0 31.7916666666667  0 28  C 0 24.2083333333333  0.739583333333333 20.5833333333333  2.21875 17.125  C 3.69791666666667 13.6666666666667  5.6875 10.6875  8.1875 8.1875  C 10.6875 5.6875  13.6666666666667 3.69791666666667  17.125 2.21875  C 20.5833333333333 0.739583333333333  24.2083333333333 0  28 0  C 31.7916666666667 0  35.4166666666667 0.739583333333333  38.875 2.21875  C 42.3333333333333 3.69791666666667  45.3125 5.6875  47.8125 8.1875  C 50.3125 10.6875  52.3020833333333 13.6666666666667  53.78125 17.125  Z " fill-rule="nonzero" fill="#000000" stroke="none" transform="matrix(1 0 0 1 846 1753 )" />
  </g>
</svg>