<?xml version="1.0" encoding="utf-8"?>
<svg version="1.1" xmlns:xlink="http://www.w3.org/1999/xlink" width="56px" height="47px" xmlns="http://www.w3.org/2000/svg">
  <g transform="matrix(1 0 0 1 -644 -1759 )">
    <path d="M 16.9278846153846 42.4268465909091  C 17.1298076923077 42.2265625  17.2307692307692 41.9706439393939  17.2307692307692 41.6590909090909  L 17.2307692307692 35.25  C 17.2307692307692 34.938446969697  17.1298076923077 34.6825284090909  16.9278846153846 34.4822443181818  C 16.7259615384615 34.2819602272727  16.4679487179487 34.1818181818182  16.1538461538462 34  L 5.38461538461539 34  C 5.07051282051282 34.1818181818182  4.8125 34.2819602272727  4.61057692307692 34.4822443181818  C 4.40865384615385 34.6825284090909  4.30769230769231 34.938446969697  4.30769230769231 35.25  L 4.30769230769231 41.6590909090909  C 4.30769230769231 41.9706439393939  4.40865384615385 42.2265625  4.61057692307692 42.4268465909091  C 4.8125 42.6271306818182  5.07051282051282 42.7272727272727  5.38461538461539 42  L 16.1538461538462 42  C 16.4679487179487 42.7272727272727  16.7259615384615 42.6271306818182  16.9278846153846 42.4268465909091  Z M 16.9278846153846 29.6086647727273  C 17.1298076923077 29.4083806818182  17.2307692307692 29.1524621212121  17.2307692307692 28.8409090909091  L 17.2307692307692 22.4318181818182  C 17.2307692307692 22.1202651515151  17.1298076923077 21.8643465909091  16.9278846153846 21.6640625  C 16.7259615384615 21.4637784090909  16.4679487179487 21.3636363636364  16.1538461538462 22  L 5.38461538461539 22  C 5.07051282051282 21.3636363636364  4.8125 21.4637784090909  4.61057692307692 21.6640625  C 4.40865384615385 21.8643465909091  4.30769230769231 22.1202651515151  4.30769230769231 22.4318181818182  L 4.30769230769231 28.8409090909091  C 4.30769230769231 29.1524621212121  4.40865384615385 29.4083806818182  4.61057692307692 29.6086647727273  C 4.8125 29.8089488636364  5.07051282051282 29.9090909090909  5.38461538461539 30  L 16.1538461538462 30  C 16.4679487179487 29.9090909090909  16.7259615384615 29.8089488636364  16.9278846153846 29.6086647727273  Z M 34.1586538461538 42.4268465909091  C 34.3605769230769 42.2265625  34.4615384615385 41.9706439393939  34.4615384615385 41.6590909090909  L 34.4615384615385 35.25  C 34.4615384615385 34.938446969697  34.3605769230769 34.6825284090909  34.1586538461538 34.4822443181818  C 33.9567307692308 34.2819602272727  33.6987179487179 34.1818181818182  33.3846153846154 34  L 22.6153846153846 34  C 22.3012820512821 34.1818181818182  22.0432692307692 34.2819602272727  21.8413461538462 34.4822443181818  C 21.6394230769231 34.6825284090909  21.5384615384615 34.938446969697  21.5384615384615 35.25  L 21.5384615384615 41.6590909090909  C 21.5384615384615 41.9706439393939  21.6394230769231 42.2265625  21.8413461538462 42.4268465909091  C 22.0432692307692 42.6271306818182  22.3012820512821 42.7272727272727  22.6153846153846 42  L 33.3846153846154 42  C 33.6987179487179 42.7272727272727  33.9567307692308 42.6271306818182  34.1586538461538 42.4268465909091  Z M 16.9278846153846 16.7904829545455  C 17.1298076923077 16.5901988636364  17.2307692307692 16.3342803030303  17.2307692307692 16.0227272727273  L 17.2307692307692 9.61363636363637  C 17.2307692307692 9.30208333333333  17.1298076923077 9.04616477272727  16.9278846153846 8.84588068181818  C 16.7259615384615 8.64559659090909  16.4679487179487 8.54545454545454  16.1538461538462 9  L 5.38461538461539 9  C 5.07051282051282 8.54545454545454  4.8125 8.64559659090909  4.61057692307692 8.84588068181818  C 4.40865384615385 9.04616477272727  4.30769230769231 9.30208333333333  4.30769230769231 9.61363636363637  L 4.30769230769231 16.0227272727273  C 4.30769230769231 16.3342803030303  4.40865384615385 16.5901988636364  4.61057692307692 16.7904829545455  C 4.8125 16.9907670454545  5.07051282051282 17.0909090909091  5.38461538461539 17  L 16.1538461538462 17  C 16.4679487179487 17.0909090909091  16.7259615384615 16.9907670454545  16.9278846153846 16.7904829545455  Z M 34.1586538461538 29.6086647727273  C 34.3605769230769 29.4083806818182  34.4615384615385 29.1524621212121  34.4615384615385 28.8409090909091  L 34.4615384615385 22.4318181818182  C 34.4615384615385 22.1202651515151  34.3605769230769 21.8643465909091  34.1586538461538 21.6640625  C 33.9567307692308 21.4637784090909  33.6987179487179 21.3636363636364  33.3846153846154 22  L 22.6153846153846 22  C 22.3012820512821 21.3636363636364  22.0432692307692 21.4637784090909  21.8413461538462 21.6640625  C 21.6394230769231 21.8643465909091  21.5384615384615 22.1202651515151  21.5384615384615 22.4318181818182  L 21.5384615384615 28.8409090909091  C 21.5384615384615 29.1524621212121  21.6394230769231 29.4083806818182  21.8413461538462 29.6086647727273  C 22.0432692307692 29.8089488636364  22.3012820512821 29.9090909090909  22.6153846153846 30  L 33.3846153846154 30  C 33.6987179487179 29.9090909090909  33.9567307692308 29.8089488636364  34.1586538461538 29.6086647727273  Z M 51.3894230769231 42.4268465909091  C 51.5913461538462 42.2265625  51.6923076923077 41.9706439393939  51.6923076923077 41.6590909090909  L 51.6923076923077 35.25  C 51.6923076923077 34.938446969697  51.5913461538462 34.6825284090909  51.3894230769231 34.4822443181818  C 51.1875 34.2819602272727  50.9294871794872 34.1818181818182  50.6153846153846 34  L 39.8461538461538 34  C 39.5320512820513 34.1818181818182  39.2740384615385 34.2819602272727  39.0721153846154 34.4822443181818  C 38.8701923076923 34.6825284090909  38.7692307692308 34.938446969697  38.7692307692308 35.25  L 38.7692307692308 41.6590909090909  C 38.7692307692308 41.9706439393939  38.8701923076923 42.2265625  39.0721153846154 42.4268465909091  C 39.2740384615385 42.6271306818182  39.5320512820513 42.7272727272727  39.8461538461538 42  L 50.6153846153846 42  C 50.9294871794872 42.7272727272727  51.1875 42.6271306818182  51.3894230769231 42.4268465909091  Z M 34.1586538461538 16.7904829545455  C 34.3605769230769 16.5901988636364  34.4615384615385 16.3342803030303  34.4615384615385 16.0227272727273  L 34.4615384615385 9.61363636363637  C 34.4615384615385 9.30208333333333  34.3605769230769 9.04616477272727  34.1586538461538 8.84588068181818  C 33.9567307692308 8.64559659090909  33.6987179487179 8.54545454545454  33.3846153846154 9  L 22.6153846153846 9  C 22.3012820512821 8.54545454545454  22.0432692307692 8.64559659090909  21.8413461538462 8.84588068181818  C 21.6394230769231 9.04616477272727  21.5384615384615 9.30208333333333  21.5384615384615 9.61363636363637  L 21.5384615384615 16.0227272727273  C 21.5384615384615 16.3342803030303  21.6394230769231 16.5901988636364  21.8413461538462 16.7904829545455  C 22.0432692307692 16.9907670454545  22.3012820512821 17.0909090909091  22.6153846153846 17  L 33.3846153846154 17  C 33.6987179487179 17.0909090909091  33.9567307692308 16.9907670454545  34.1586538461538 16.7904829545455  Z M 51.3894230769231 29.6086647727273  C 51.5913461538462 29.4083806818182  51.6923076923077 29.1524621212121  51.6923076923077 28.8409090909091  L 51.6923076923077 22.4318181818182  C 51.6923076923077 22.1202651515151  51.5913461538462 21.8643465909091  51.3894230769231 21.6640625  C 51.1875 21.4637784090909  50.9294871794872 21.3636363636364  50.6153846153846 22  L 39.8461538461538 22  C 39.5320512820513 21.3636363636364  39.2740384615385 21.4637784090909  39.0721153846154 21.6640625  C 38.8701923076923 21.8643465909091  38.7692307692308 22.1202651515151  38.7692307692308 22.4318181818182  L 38.7692307692308 28.8409090909091  C 38.7692307692308 29.1524621212121  38.8701923076923 29.4083806818182  39.0721153846154 29.6086647727273  C 39.2740384615385 29.8089488636364  39.5320512820513 29.9090909090909  39.8461538461538 30  L 50.6153846153846 30  C 50.9294871794872 29.9090909090909  51.1875 29.8089488636364  51.3894230769231 29.6086647727273  Z M 51.3894230769231 16.7904829545455  C 51.5913461538462 16.5901988636364  51.6923076923077 16.3342803030303  51.6923076923077 16.0227272727273  L 51.6923076923077 9.61363636363637  C 51.6923076923077 9.30208333333333  51.5913461538462 9.04616477272727  51.3894230769231 8.84588068181818  C 51.1875 8.64559659090909  50.9294871794872 8.54545454545454  50.6153846153846 9  L 39.8461538461538 9  C 39.5320512820513 8.54545454545454  39.2740384615385 8.64559659090909  39.0721153846154 8.84588068181818  C 38.8701923076923 9.04616477272727  38.7692307692308 9.30208333333333  38.7692307692308 9.61363636363637  L 38.7692307692308 16.0227272727273  C 38.7692307692308 16.3342803030303  38.8701923076923 16.5901988636364  39.0721153846154 16.7904829545455  C 39.2740384615385 16.9907670454545  39.5320512820513 17.0909090909091  39.8461538461538 17  L 50.6153846153846 17  C 50.9294871794872 17.0909090909091  51.1875 16.9907670454545  51.3894230769231 16.7904829545455  Z M 54.4182692307692 1.56889204545454  C 55.4727564102564 2.61482007575757  56 3.87215909090909  56 5.34090909090909  L 56 41.6590909090909  C 56 43.1278409090909  55.4727564102564 44.3851799242424  54.4182692307692 45.4311079545455  C 53.3637820512821 46.4770359848485  52.0961538461538 47  50.6153846153846 47  L 5.38461538461539 47  C 3.90384615384615 47  2.63621794871795 46.4770359848485  1.58173076923077 45.4311079545455  C 0.52724358974359 44.3851799242424  0 43.1278409090909  0 41.6590909090909  L 0 5.34090909090909  C 0 3.87215909090909  0.52724358974359 2.61482007575757  1.58173076923077 1.56889204545454  C 2.63621794871795 0.522964015151509  3.90384615384615 0  5.38461538461539 0  L 50.6153846153846 0  C 52.0961538461538 0  53.3637820512821 0.522964015151509  54.4182692307692 1.56889204545454  Z " fill-rule="nonzero" fill="#ffffff" stroke="none" transform="matrix(1 0 0 1 644 1759 )" />
  </g>
</svg>