<?xml version="1.0" encoding="utf-8"?>
<svg version="1.1" xmlns:xlink="http://www.w3.org/1999/xlink" width="91px" height="91px" xmlns="http://www.w3.org/2000/svg">
  <g transform="matrix(1 0 0 1 -827 -3098 )">
    <path d="M 17.0625 0  L 73.9375 0  C 78.6375868055556 0  82.6563585069445 1.66872829861111  85.9938151041667 5.00618489583334  C 89.3312717013889 8.34364149305555  91 12.3624131944444  91 17.0625  L 91 73.9375  C 91 78.6375868055555  89.3312717013889 82.6563585069445  85.9938151041667 85.9938151041667  C 82.6563585069445 89.3312717013889  78.6375868055556 91  73.9375 91  L 62 91  L 62 55  L 74.5891927083333 55  L 76.3665364583333 42  L 62.7994791666667 42  L 62.7994791666667 33.236328125  C 62.7994791666667 31.0245225694444  63.2635633680556 29.3656684027778  64.1917317708333 28.259765625  C 65.1199001736111 27.1538628472222  66.9268663194445 26.6009114583333  69.6126302083333 26.6009114583333  L 76 26.5416666666667  L 76 14.2779947916667  C 74.3522135416667 13.9225260416667  70.8370225694445 13.7447916666667  66.294921875 13.7447916666667  C 60.9233940972222 13.7447916666667  56.6281467013889 15.3246527777778  53.4091796875 18.484375  C 50.1902126736111 21.6440972222222  48.5807291666667 26.1072048611111  48 31.8736979166667  L 48 42  L 37 42  L 37 55  L 48 55  L 48 91  L 17.0625 91  C 12.3624131944444 91  8.34364149305556 89.3312717013889  5.00618489583333 85.9938151041667  C 1.66872829861111 82.6563585069445  0 78.6375868055555  0 73.9375  L 0 17.0625  C 0 12.3624131944444  1.66872829861111 8.34364149305555  5.00618489583333 5.00618489583334  C 8.34364149305556 1.66872829861111  12.3624131944444 0  17.0625 0  Z " fill-rule="nonzero" fill="#000000" stroke="none" transform="matrix(1 0 0 1 827 3098 )" />
  </g>
</svg>