<?xml version="1.0" encoding="utf-8"?>
<svg version="1.1" xmlns:xlink="http://www.w3.org/1999/xlink" width="91px" height="91px" xmlns="http://www.w3.org/2000/svg">
  <g transform="matrix(1 0 0 1 -2736 -2277 )">
    <path d="M 56.2233072916667 56.2233072916667  C 59.185546875 53.2610677083333  60.6666666666667 49.6866319444444  60.6666666666667 45.5  C 60.6666666666667 41.3133680555556  59.185546875 37.7389322916667  56.2233072916667 34.7766927083333  C 53.2610677083333 31.814453125  49.6866319444444 30.3333333333333  45.5 30.3333333333333  C 41.3133680555556 30.3333333333333  37.7389322916667 31.814453125  34.7766927083333 34.7766927083333  C 31.814453125 37.7389322916667  30.3333333333333 41.3133680555556  30.3333333333333 45.5  C 30.3333333333333 49.6866319444444  31.814453125 53.2610677083333  34.7766927083333 56.2233072916667  C 37.7389322916667 59.185546875  41.3133680555556 60.6666666666667  45.5 60.6666666666667  C 49.6866319444444 60.6666666666667  53.2610677083333 59.185546875  56.2233072916667 56.2233072916667  Z M 62.029296875 28.970703125  C 66.5713975694445 33.5128038194444  68.8424479166667 39.0225694444444  68.8424479166667 45.5  C 68.8424479166667 51.9774305555556  66.5713975694445 57.4871961805556  62.029296875 62.029296875  C 57.4871961805556 66.5713975694444  51.9774305555556 68.8424479166667  45.5 68.8424479166667  C 39.0225694444444 68.8424479166667  33.5128038194444 66.5713975694444  28.970703125 62.029296875  C 24.4286024305556 57.4871961805556  22.1575520833333 51.9774305555556  22.1575520833333 45.5  C 22.1575520833333 39.0225694444444  24.4286024305556 33.5128038194444  28.970703125 28.970703125  C 33.5128038194444 24.4286024305555  39.0225694444444 22.1575520833333  45.5 22.1575520833333  C 51.9774305555556 22.1575520833333  57.4871961805556 24.4286024305555  62.029296875 28.970703125  Z M 73.6412760416667 17.3587239583333  C 74.7076822916667 18.4251302083333  75.2408854166667 19.7087673611111  75.2408854166667 21.2096354166667  C 75.2408854166667 22.7105034722222  74.7076822916667 23.994140625  73.6412760416667 25.060546875  C 72.5748697916667 26.126953125  71.2912326388889 26.66015625  69.7903645833333 26.66015625  C 68.2894965277778 26.66015625  67.005859375 26.126953125  65.939453125 25.060546875  C 64.873046875 23.994140625  64.33984375 22.7105034722222  64.33984375 21.2096354166667  C 64.33984375 19.7087673611111  64.873046875 18.4251302083333  65.939453125 17.3587239583333  C 67.005859375 16.2923177083333  68.2894965277778 15.7591145833333  69.7903645833333 15.7591145833333  C 71.2912326388889 15.7591145833333  72.5748697916667 16.2923177083333  73.6412760416667 17.3587239583333  Z M 50.0322265625 8.14615885416666  C 47.2872178819444 8.16590711805555  45.7764756944444 8.17578125  45.5 8.17578125  C 45.2235243055556 8.17578125  43.7127821180556 8.16590711805555  40.9677734375 8.14615885416666  C 38.2227647569444 8.12641059027777  36.1393229166667 8.12641059027777  34.7174479166667 8.14615885416666  C 33.2955729166667 8.16590711805555  31.3898654513889 8.22515190972222  29.0003255208333 8.32389322916666  C 26.6107855902778 8.42263454861111  24.5767144097222 8.6201171875  22.8981119791667 8.91634114583334  C 21.2195095486111 9.21256510416666  19.8075086805556 9.57790798611111  18.662109375 10.0123697916667  C 16.6872829861111 10.8023003472222  14.9494357638889 11.9476996527778  13.4485677083333 13.4485677083333  C 11.9476996527778 14.9494357638889  10.8023003472222 16.6872829861111  10.0123697916667 18.662109375  C 9.57790798611111 19.8075086805555  9.21256510416667 21.2195095486111  8.91634114583333 22.8981119791667  C 8.6201171875 24.5767144097222  8.42263454861111 26.6107855902778  8.32389322916667 29.0003255208333  C 8.22515190972222 31.3898654513889  8.16590711805556 33.2955729166667  8.14615885416667 34.7174479166667  C 8.12641059027778 36.1393229166667  8.12641059027778 38.2227647569444  8.14615885416667 40.9677734375  C 8.16590711805556 43.7127821180556  8.17578125 45.2235243055556  8.17578125 45.5  C 8.17578125 45.7764756944444  8.16590711805556 47.2872178819444  8.14615885416667 50.0322265625  C 8.12641059027778 52.7772352430556  8.12641059027778 54.8606770833333  8.14615885416667 56.2825520833333  C 8.16590711805556 57.7044270833333  8.22515190972222 59.6101345486111  8.32389322916667 61.9996744791667  C 8.42263454861111 64.3892144097222  8.6201171875 66.4232855902778  8.91634114583333 68.1018880208333  C 9.21256510416667 69.7804904513889  9.57790798611111 71.1924913194444  10.0123697916667 72.337890625  C 10.8023003472222 74.3127170138889  11.9476996527778 76.0505642361111  13.4485677083333 77.5514322916667  C 14.9494357638889 79.0523003472222  16.6872829861111 80.1976996527778  18.662109375 80.9876302083333  C 19.8075086805556 81.4220920138889  21.2195095486111 81.7874348958333  22.8981119791667 82.0836588541667  C 24.5767144097222 82.3798828125  26.6107855902778 82.5773654513889  29.0003255208333 82.6761067708333  C 31.3898654513889 82.7748480902778  33.2955729166667 82.8340928819445  34.7174479166667 82.8538411458333  C 36.1393229166667 82.8735894097222  38.2227647569444 82.8735894097222  40.9677734375 82.8538411458333  C 43.7127821180556 82.8340928819445  45.2235243055556 82.82421875  45.5 82.82421875  C 45.7764756944444 82.82421875  47.2872178819444 82.8340928819445  50.0322265625 82.8538411458333  C 52.7772352430556 82.8735894097222  54.8606770833333 82.8735894097222  56.2825520833333 82.8538411458333  C 57.7044270833333 82.8340928819445  59.6101345486111 82.7748480902778  61.9996744791667 82.6761067708333  C 64.3892144097222 82.5773654513889  66.4232855902778 82.3798828125  68.1018880208333 82.0836588541667  C 69.7804904513889 81.7874348958333  71.1924913194445 81.4220920138889  72.337890625 80.9876302083333  C 74.3127170138889 80.1976996527778  76.0505642361111 79.0523003472222  77.5514322916667 77.5514322916667  C 79.0523003472222 76.0505642361111  80.1976996527778 74.3127170138889  80.9876302083333 72.337890625  C 81.4220920138889 71.1924913194444  81.7874348958333 69.7804904513889  82.0836588541667 68.1018880208333  C 82.3798828125 66.4232855902778  82.5773654513889 64.3892144097222  82.6761067708333 61.9996744791667  C 82.7748480902778 59.6101345486111  82.8340928819445 57.7044270833333  82.8538411458333 56.2825520833333  C 82.8735894097222 54.8606770833333  82.8735894097222 52.7772352430556  82.8538411458333 50.0322265625  C 82.8340928819445 47.2872178819444  82.82421875 45.7764756944444  82.82421875 45.5  C 82.82421875 45.2235243055556  82.8340928819445 43.7127821180556  82.8538411458333 40.9677734375  C 82.8735894097222 38.2227647569444  82.8735894097222 36.1393229166667  82.8538411458333 34.7174479166667  C 82.8340928819445 33.2955729166667  82.7748480902778 31.3898654513889  82.6761067708333 29.0003255208333  C 82.5773654513889 26.6107855902778  82.3798828125 24.5767144097222  82.0836588541667 22.8981119791667  C 81.7874348958333 21.2195095486111  81.4220920138889 19.8075086805555  80.9876302083333 18.662109375  C 80.1976996527778 16.6872829861111  79.0523003472222 14.9494357638889  77.5514322916667 13.4485677083333  C 76.0505642361111 11.9476996527778  74.3127170138889 10.8023003472222  72.337890625 10.0123697916667  C 71.1924913194445 9.57790798611111  69.7804904513889 9.21256510416666  68.1018880208333 8.91634114583334  C 66.4232855902778 8.6201171875  64.3892144097222 8.42263454861111  61.9996744791667 8.32389322916666  C 59.6101345486111 8.22515190972222  57.7044270833333 8.16590711805555  56.2825520833333 8.14615885416666  C 54.8606770833333 8.12641059027777  52.7772352430556 8.12641059027777  50.0322265625 8.14615885416666  Z M 90.7037760416667 26.7194010416667  C 90.9012586805555 30.1950954861111  91 36.4552951388889  91 45.5  C 91 54.5447048611111  90.9012586805555 60.8049045138889  90.7037760416667 64.2805989583333  C 90.3088107638889 72.4958767361111  87.8600260416667 78.8548177083333  83.357421875 83.357421875  C 78.8548177083333 87.8600260416667  72.4958767361111 90.3088107638889  64.2805989583333 90.7037760416667  C 60.8049045138889 90.9012586805555  54.5447048611111 91  45.5 91  C 36.4552951388889 91  30.1950954861111 90.9012586805555  26.7194010416667 90.7037760416667  C 18.5041232638889 90.3088107638889  12.1451822916667 87.8600260416667  7.642578125 83.357421875  C 3.13997395833333 78.8548177083333  0.691189236111111 72.4958767361111  0.296223958333333 64.2805989583333  C 0.0987413194444444 60.8049045138889  0 54.5447048611111  0 45.5  C 0 36.4552951388889  0.0987413194444444 30.1950954861111  0.296223958333333 26.7194010416667  C 0.691189236111111 18.5041232638889  3.13997395833333 12.1451822916667  7.642578125 7.642578125  C 12.1451822916667 3.13997395833334  18.5041232638889 0.691189236111105  26.7194010416667 0.296223958333337  C 30.1950954861111 0.0987413194444321  36.4552951388889 0  45.5 0  C 54.5447048611111 0  60.8049045138889 0.0987413194444321  64.2805989583333 0.296223958333337  C 72.4958767361111 0.691189236111105  78.8548177083333 3.13997395833334  83.357421875 7.642578125  C 87.8600260416667 12.1451822916667  90.3088107638889 18.5041232638889  90.7037760416667 26.7194010416667  Z " fill-rule="nonzero" fill="#000000" stroke="none" transform="matrix(1 0 0 1 2736 2277 )" />
  </g>
</svg>