<?xml version="1.0" encoding="utf-8"?>
<svg version="1.1" xmlns:xlink="http://www.w3.org/1999/xlink" width="27px" height="42px" xmlns="http://www.w3.org/2000/svg">
  <g transform="matrix(1 0 0 1 -394 -616 )">
    <path d="M 18.2724609375 18.94921875  C 19.5908203125 17.58203125  20.25 15.9322916666667  20.25 14  C 20.25 12.0677083333333  19.5908203125 10.41796875  18.2724609375 9.05078125  C 16.9541015625 7.68359375  15.36328125 7  13.5 7  C 11.63671875 7  10.0458984375 7.68359375  8.7275390625 9.05078125  C 7.4091796875 10.41796875  6.75 12.0677083333333  6.75 14  C 6.75 15.9322916666667  7.4091796875 17.58203125  8.7275390625 18.94921875  C 10.0458984375 20.31640625  11.63671875 21  13.5 21  C 15.36328125 21  16.9541015625 20.31640625  18.2724609375 18.94921875  Z M 23.044921875 4.1015625  C 25.681640625 6.8359375  27 10.1354166666667  27 14  C 27 15.9869791666667  26.7099609375 17.6184895833333  26.1298828125 18.89453125  L 16.5322265625 40.05859375  C 16.2509765625 40.66015625  15.83349609375 41.1341145833333  15.27978515625 41.48046875  C 14.72607421875 41.8268229166667  14.1328125 42  13.5 42  C 12.8671875 42  12.27392578125 41.8268229166667  11.72021484375 41.48046875  C 11.16650390625 41.1341145833333  10.7578125 40.66015625  10.494140625 40.05859375  L 0.8701171875 18.89453125  C 0.2900390625 17.6184895833333  0 15.9869791666667  0 14  C 0 10.1354166666667  1.318359375 6.8359375  3.955078125 4.1015625  C 6.591796875 1.3671875  9.7734375 0  13.5 0  C 17.2265625 0  20.408203125 1.3671875  23.044921875 4.1015625  Z " fill-rule="nonzero" fill="#d9001b" stroke="none" transform="matrix(1 0 0 1 394 616 )" />
  </g>
</svg>